<?xml version="1.0" encoding="UTF-8"?>
<svg id="svg2548" width="78" height="44" clip-rule="evenodd" fill-rule="evenodd" stroke-linecap="round" stroke-linejoin="round" stroke-miterlimit="2" version="1.1" viewBox="0 0 78 44" xml:space="preserve" xmlns="http://www.w3.org/2000/svg"><clipPath id="_clip1"><rect id="web-design" width="266" height="226"/></clipPath><path fill="#333333" id="path3372" d="m48 0c-.6 0-1 .2-2 .5-.5.3-.8.8-1 1l-17 42h2c.5 0 1-.2 2-.5.5-.3.9-.8 1-1l17-42zm-26 10-22 11v2l22 11v-4c0-.3-.08-.6-.2-.8-.2-.2-.4-.5-.8-.6l-13-6c-.4-.2-.8-.4-1-.5-.4-.2-.9-.3-1-.4.5-.1.9-.2 1-.4.4-.2.8-.3 1-.5l13-6c.4-.2.6-.4.8-.6.2-.2.2-.5.2-.8zm34 0v4c0 .3.08.6.2.8.2.2.4.4.8.6l13 6c.4.2.8.4 1 .5.4.1.9.3 1 .4-.5.09-.9.2-1 .4-.4.2-.8.3-1 .5l-13 6c-.4.2-.6.4-.8.6-.2.2-.2.5-.2.8v4l22-11v-2z" stroke-width=".4"/></svg>
