<svg id="svg6" class="bi bi-vector-pen" width="30.338" height="16.936" fill="#333333" version="1.1" viewBox="0 0 30.338 16.936" xmlns="http://www.w3.org/2000/svg"><path id="path5616" d="m0 4.4362c5.9354e-8 -0.82843 0.67157-1.5 1.5-1.5h1c0.82843-1e-7 1.5 0.67157 1.5 1.5l4.134-1e-7c0.5117-0.88629 1.8659-0.52284 1.8659 0.5 0 1.0228-1.3542 1.3863-1.8659 0.5h-2.01c0.18 0.18 0.34 0.381 0.484 0.605 0.638 0.992 0.892 2.354 0.892 3.895 0 1.993 0.257 3.092 0.713 3.7 0.356 0.476 0.895 0.721 1.787 0.784 0.0088-0.82217 0.67778-1.484 1.5-1.484h1c0.82843 0 1.5 0.67157 1.5 1.5v1c0 0.82843-0.67157 1.5-1.5 1.5h-1c-0.82843 0-1.5-0.67157-1.5-1.5h-4.134c-0.5117 0.88629-1.8659 0.52284-1.8659-0.5 4e-7 -1.0228 1.3542-1.3863 1.8659-0.5h1.711c-0.058017-0.06412-0.11307-0.13086-0.165-0.2-0.669-0.893-0.912-2.293-0.912-4.3 0-1.46-0.246-2.597-0.733-3.355-0.39-0.605-0.952-1-1.767-1.112-0.017946 0.81551-0.68429 1.4672-1.5 1.467l-1 2e-7c-0.82843 1e-7 -1.5-0.67157-1.5-1.5zm1.5-0.5c-0.27614-1e-7 -0.5 0.22386-0.5 0.5l6e-8 1c-6e-8 0.27614 0.22386 0.5 0.5 0.5h1c0.27614 0 0.5-0.22386 0.5-0.5v-1c0-0.27614-0.22386-0.5-0.5-0.5zm10 10c-0.27614 0-0.5 0.22386-0.5 0.5v1c0 0.27614 0.22386 0.5 0.5 0.5h1c0.27614 0 0.5-0.22386 0.5-0.5v-1c0-0.27614-0.22386-0.5-0.5-0.5zm10.207-4.0559c1.1654 1e-7 2.1102-0.94477 2.1102-2.1102 0-0.58206-0.39461-1.0213-0.85533-1.5341-0.46213-0.51418-0.99109-1.1026-1.2549-1.9829 0 0-2.1102 1.9998-2.1102 3.517 0 1.1654 0.94476 2.1102 2.1102 2.1102zm-0.4762-3.9932 0.249 0.249c-0.10199 0.10199-0.39671 0.46108-0.67068 1.0094l-0.31442-0.15756c0.28839-0.57714 0.60386-0.96823 0.7361-1.1008zm-7.3243 7.7059c0.07978-0.06155 0.61037-0.43997 1.1791-0.84091 0.56871-0.40094 1.472-1.0397 2.0072-1.4196 0.53526-0.37981 1.0844-0.76942 1.2202-0.86579l0.24702-0.17522-0.29419-0.30508-0.84728 0.59714c-0.46601 0.32842-1.0036 0.70702-1.1948 0.84133-0.19112 0.13431-0.87469 0.62014-1.5191 1.0796-0.64437 0.45949-1.1832 0.83544-1.1975 0.83544s0.05807-0.18476 0.16068-0.41056c0.39866-0.87728 1.208-2.956 1.5634-4.0154 0.55841-1.6645 0.77049-2.5519 1.0155-4.2489 0.02568-0.17781 0.06674-0.20555 0.64957-0.43867 1.2073-0.48292 6.3934-2.6004 8.671-3.5404l1.6622-0.68603 1.7929 1.79 0.68468 1.2168c0.4724 0.83952 0.66656 1.2392 0.62623 1.2892-0.41577 0.51528-3.2195 4.0435-3.8315 4.8217-3.3307 4.2347-3.4462 4.3778-3.5196 4.3633-1.8556-0.36662-5.1871-0.31284-8.4091 0.13574-0.81858 0.11397-0.84388 0.11307-0.66668-0.02366z" fill="#333333" fill-rule="evenodd"/></svg>
