<?xml version="1.0" encoding="UTF-8" standalone="no"?><!DOCTYPE svg PUBLIC "-//W3C//DTD SVG 1.1//EN" "http://www.w3.org/Graphics/SVG/1.1/DTD/svg11.dtd"><svg width="100%" height="100%" viewBox="0 0 421 189" version="1.1" xmlns="http://www.w3.org/2000/svg" xmlns:xlink="http://www.w3.org/1999/xlink" xml:space="preserve" xmlns:serif="http://www.serif.com/" style="fill-rule:evenodd;clip-rule:evenodd;stroke-linejoin:round;stroke-miterlimit:2;"><path id="path2978" d="M7.461,184.709c-4.01,-2.011 -5.348,-4.799 -5.364,-11.175l-0.014,-5.142l185.086,0l-0.013,5.142c-0.017,6.376 -1.355,9.164 -5.364,11.175c-2.902,1.455 -8.933,1.563 -87.166,1.563c-78.233,0 -84.264,-0.108 -87.166,-1.563l0.001,-0Zm191.332,1.178c-0,-0.214 2.219,-3.332 4.931,-6.93c4.739,-6.286 10.269,-18.219 10.269,-22.16c0,-1.77 0.495,-1.817 19.078,-1.817l19.077,0l1.514,5.447c1.928,6.933 4.676,12.332 9.86,19.368c2.266,3.075 4.119,5.791 4.119,6.035c0,0.245 -15.491,0.445 -34.424,0.445c-18.933,0 -34.424,-0.175 -34.424,-0.388l-0,-0Zm82.341,-0.573c-4.63,-1.881 -4.492,-0.118 -4.523,-58.155c-0.028,-53.498 -0.005,-54.228 1.825,-56.554l1.853,-2.356l85.577,0l1.853,2.356c1.829,2.324 1.854,3.081 1.854,56.281l-0,53.924l-2.158,2.509l-2.157,2.509l-40.985,0.18c-25.102,0.111 -41.819,-0.158 -43.139,-0.694Zm44.481,-6.091c0.469,-3.316 -2.319,-4.662 -4.707,-2.274c-1.079,1.078 -1.183,1.815 -0.451,3.183c1.333,2.489 4.763,1.885 5.158,-0.909Zm29.436,-52.021l-0.232,-44.767l-63.483,0.104l-0.464,89.43l64.411,-0l-0.232,-44.767Zm27.365,58.057c-3.643,-1.821 -3.902,-4.064 -3.902,-33.777c-0,-27.428 0.066,-28.534 1.853,-30.805l1.853,-2.356l16.321,-0c15.904,-0 16.37,0.053 18.265,2.069c1.915,2.039 1.944,2.51 1.944,31.643c-0,27.773 -0.104,29.702 -1.707,31.684c-1.664,2.057 -2.107,2.116 -17.212,2.304c-9.601,0.119 -16.232,-0.171 -17.415,-0.762Zm18.692,-4.572c0.688,-1.971 -0.372,-3.353 -2.572,-3.353c-1.686,-0 -2.139,0.473 -2.139,2.235c-0,1.768 0.452,2.235 2.16,2.235c1.189,0 2.337,-0.503 2.551,-1.117Zm12.277,-7.824l0,-43.813l-29.506,0l-0,43.813l29.506,-0Zm-8.494,-49.177c-0,-1.025 -1.352,-1.405 -5.721,-1.611c-5.714,-0.27 -8.001,0.557 -6.821,2.466c0.392,0.634 2.847,0.913 6.583,0.748c4.584,-0.202 5.959,-0.572 5.959,-1.603Zm-382.243,37.553l0,-93.127l5.228,-5.228l133.501,0l5.227,5.228l0,93.127l-143.956,0Zm129.65,-14.306l-0,-69.742l-115.343,-0l-0,69.742l115.343,0Zm21.459,0l0,-14.322l95.225,0.463l0.262,6.93l0.261,6.929l-95.748,0Zm152.897,-108.637l0,-21.907l-182.403,0l-0,39.342l-14.306,0l-0,-24.88c-0,-24.85 0.002,-24.882 2.069,-26.824l2.069,-1.944l101.105,0c98.192,0 101.164,0.05 103.214,1.709l2.111,1.708l0.521,54.702l-14.38,0l0,-21.906Z" style="fill:#fff;stroke:#fff;stroke-width:4.17px;"/><path id="path2506-4-6-6" d="M304.582,129.57l38.455,-0" style="fill:none;stroke:#fff;stroke-width:1.76px;stroke-linecap:round;stroke-miterlimit:1.5;"/><path id="path2508-4-4-2" d="M311.876,134.135l23.867,-0" style="fill:none;stroke:#fff;stroke-width:1.99px;stroke-linecap:round;stroke-miterlimit:1.5;"/><path id="path2522-9-8-0" d="M334.049,163.658c0,-0.667 -0.265,-1.308 -0.737,-1.78c-0.472,-0.472 -1.112,-0.737 -1.78,-0.737l-15.446,0c-0.667,0 -1.308,0.265 -1.78,0.737c-0.472,0.472 -0.737,1.113 -0.737,1.78c0,0.668 0.265,1.308 0.737,1.78c0.472,0.472 1.113,0.737 1.78,0.737l15.446,0c0.668,0 1.308,-0.265 1.78,-0.737c0.472,-0.472 0.737,-1.112 0.737,-1.78Z" style="fill:#fff;stroke:#fff;stroke-width:1.74px;stroke-linecap:round;stroke-miterlimit:1.5;"/><path id="path2516-0-6-7" d="M346.35,89.406l4.764,-0" style="fill:none;stroke:#fff;stroke-width:0.95px;stroke-linecap:round;stroke-miterlimit:1.5;"/><path id="path2516-0-6-7-0" d="M346.35,87.814l4.764,-0" style="fill:none;stroke:#fff;stroke-width:0.95px;stroke-linecap:round;stroke-miterlimit:1.5;"/><path id="path2516-0-6-7-0-4" d="M346.35,90.998l4.764,0" style="fill:none;stroke:#fff;stroke-width:0.95px;stroke-linecap:round;stroke-miterlimit:1.5;"/><path id="path2524-3-4-1" d="M312.409,89.406c0,-0.668 -0.265,-1.308 -0.737,-1.78c-0.472,-0.473 -1.113,-0.737 -1.78,-0.737l-10.472,-0c-0.668,-0 -1.308,0.265 -1.78,0.737c-0.472,0.472 -0.738,1.112 -0.738,1.78c0,0.667 0.266,1.308 0.738,1.78c0.472,0.472 1.112,0.737 1.78,0.737l10.471,0c0.668,0 1.309,-0.265 1.781,-0.737c0.472,-0.472 0.737,-1.113 0.737,-1.78Z" style="fill:#fff;stroke:#fff;stroke-width:1.74px;stroke-linecap:round;stroke-miterlimit:1.5;"/><circle id="circle2532-5-5-5" cx="323.965" cy="116.831" r="8.594" style="fill:#fff;stroke:#fff;stroke-width:1.74px;stroke-linecap:round;stroke-miterlimit:1.5;"/><circle id="circle2534-2-6-4" cx="322.28" cy="113.351" r="1.53" style="fill:#fff;stroke:#fff;stroke-width:1.74px;stroke-linecap:round;stroke-miterlimit:1.5;"/><path id="path2536-2-8-6" d="M315.905,119.816l3.237,-2.985l3.137,3.324l4.335,-5.274l5.313,5.187" style="fill:#fff;stroke:#fff;stroke-width:1.74px;stroke-linecap:round;stroke-miterlimit:1.5;"/><path id="path2538-2-4-4" d="M298.451,127.457l-3.92,4.333l3.919,4.574" style="fill:#fff;stroke:#fff;stroke-width:1.74px;stroke-linecap:round;stroke-miterlimit:1.5;"/><path id="path2540-2-2-7" d="M349.168,136.364l3.92,-4.334l-3.92,-4.573" style="fill:#fff;stroke:#fff;stroke-width:1.74px;stroke-linecap:round;stroke-miterlimit:1.5;"/><path id="path2506-4-6-6-2" d="M390.593,150.537l16.37,-0.001" style="fill:none;stroke:#fff;stroke-width:0.75px;stroke-linecap:round;stroke-miterlimit:1.5;"/><path id="path2508-4-4-2-8" d="M393.698,152.48l10.16,-0" style="fill:none;stroke:#fff;stroke-width:0.85px;stroke-linecap:round;stroke-miterlimit:1.5;"/><path id="path2522-9-8-0-5" d="M403.137,169.462c-0,-0.284 -0.113,-0.556 -0.314,-0.757c-0.201,-0.201 -0.474,-0.314 -0.758,-0.314l-6.575,-0c-0.284,-0 -0.557,0.113 -0.758,0.314c-0.2,0.201 -0.313,0.473 -0.313,0.757c-0,0.285 0.113,0.557 0.313,0.758c0.201,0.201 0.474,0.314 0.758,0.314l6.575,-0c0.285,-0 0.557,-0.113 0.758,-0.314c0.201,-0.201 0.314,-0.473 0.314,-0.758Z" style="fill:#fff;stroke:#fff;stroke-width:0.74px;stroke-linecap:round;stroke-miterlimit:1.5;"/><path id="path2516-0-6-7-6" d="M389.182,131.796l-2.028,0" style="fill:none;stroke:#fff;stroke-width:0.4px;stroke-linecap:round;stroke-miterlimit:1.5;"/><path id="path2516-0-6-7-0-2" d="M389.182,131.118l-2.028,0" style="fill:none;stroke:#fff;stroke-width:0.4px;stroke-linecap:round;stroke-miterlimit:1.5;"/><path id="path2516-0-6-7-0-4-0" d="M389.182,132.474l-2.028,-0" style="fill:none;stroke:#fff;stroke-width:0.4px;stroke-linecap:round;stroke-miterlimit:1.5;"/><path id="path2524-3-4-1-1" d="M403.631,131.796c-0,-0.284 0.113,-0.557 0.314,-0.758c0.201,-0.201 0.473,-0.313 0.757,-0.313l4.458,-0c0.284,-0 0.557,0.112 0.758,0.313c0.201,0.201 0.314,0.474 0.314,0.758c-0,0.284 -0.113,0.557 -0.314,0.758c-0.201,0.201 -0.474,0.314 -0.758,0.314l-4.458,-0c-0.284,-0 -0.556,-0.113 -0.757,-0.314c-0.201,-0.201 -0.314,-0.474 -0.314,-0.758Z" style="fill:#fff;stroke:#fff;stroke-width:0.74px;stroke-linecap:round;stroke-miterlimit:1.5;"/><circle id="circle2532-5-5-5-1" cx="398.844" cy="145.114" r="3.658" style="fill:#fff;stroke:#fff;stroke-width:0.74px;stroke-linecap:round;stroke-miterlimit:1.5;"/><circle id="circle2534-2-6-4-3" cx="398.127" cy="143.632" r="0.651" style="fill:#fff;stroke:#fff;stroke-width:0.74px;stroke-linecap:round;stroke-miterlimit:1.5;"/><path id="path2536-2-8-6-5" d="M395.413,146.384l1.378,-1.27l1.335,1.415l1.846,-2.246l2.261,2.209" style="fill:#fff;stroke:#fff;stroke-width:0.74px;stroke-linecap:round;stroke-miterlimit:1.5;"/><path id="path2538-2-4-4-1" d="M387.983,149.637l-1.669,1.845l1.669,1.947" style="fill:#fff;stroke:#fff;stroke-width:0.74px;stroke-linecap:round;stroke-miterlimit:1.5;"/><path id="path2540-2-2-7-5" d="M409.573,153.429l1.668,-1.845l-1.668,-1.947" style="fill:#fff;stroke:#fff;stroke-width:0.74px;stroke-linecap:round;stroke-miterlimit:1.5;"/><path id="path2506-4" d="M197.778,87.465l76.911,-0.001" style="fill:none;stroke:#fff;stroke-width:3.1px;stroke-linecap:round;stroke-miterlimit:1.5;"/><path id="path2506-4-9" d="M154.988,23.152l162.49,-0.001" style="fill:none;stroke:#fff;stroke-width:3.86px;stroke-linecap:round;stroke-miterlimit:1.5;"/><path id="path2508-4" d="M217.659,94.57l37.149,-0" style="fill:none;stroke:#fff;stroke-width:3.1px;stroke-linecap:round;stroke-miterlimit:1.5;"/><path id="path2510-1" d="M189.753,34.894l15.61,0" style="fill:none;stroke:#fff;stroke-width:3.1px;stroke-linecap:round;stroke-miterlimit:1.5;"/><path id="path2512-5" d="M211.557,34.894l15.61,0" style="fill:none;stroke:#fff;stroke-width:3.1px;stroke-linecap:round;stroke-miterlimit:1.5;"/><path id="path2514-2" d="M233.361,34.894l15.611,0" style="fill:none;stroke:#fff;stroke-width:3.1px;stroke-linecap:round;stroke-miterlimit:1.5;"/><path id="path2516-0" d="M255.166,34.894l15.611,0" style="fill:none;stroke:#fff;stroke-width:3.1px;stroke-linecap:round;stroke-miterlimit:1.5;"/><path id="path2522-9" d="M252.172,118.897c-0,-1.039 -0.413,-2.036 -1.148,-2.771c-0.734,-0.735 -1.732,-1.147 -2.77,-1.147l-24.042,-0c-1.039,-0 -2.036,0.412 -2.771,1.147c-0.734,0.735 -1.147,1.732 -1.147,2.771c0,1.039 0.413,2.036 1.147,2.77c0.735,0.735 1.732,1.148 2.771,1.148l24.042,-0c1.039,-0 2.036,-0.413 2.77,-1.148c0.735,-0.734 1.148,-1.731 1.148,-2.77Z" style="fill:#fff;stroke:#fff;stroke-width:2.71px;stroke-linecap:round;stroke-miterlimit:1.5;"/><path id="path2524-3" d="M177.83,34.894c0,-1.04 -0.413,-2.036 -1.148,-2.771c-0.735,-0.735 -1.731,-1.147 -2.77,-1.147l-16.301,0c-1.038,0 -2.035,0.413 -2.769,1.147c-0.735,0.735 -1.149,1.731 -1.149,2.771c0,1.039 0.414,2.035 1.149,2.77c0.734,0.735 1.731,1.148 2.769,1.148l16.3,0c1.04,0 2.036,-0.413 2.771,-1.148c0.735,-0.735 1.148,-1.731 1.148,-2.77Z" style="fill:#fff;stroke:#fff;stroke-width:2.71px;stroke-linecap:round;stroke-miterlimit:1.5;"/><path id="path2526-5" d="M319.042,34.894c-0,-1.04 -0.414,-2.036 -1.148,-2.771c-0.735,-0.735 -1.731,-1.147 -2.77,-1.147l-0.685,0c-1.039,0 -2.036,0.413 -2.77,1.147c-0.735,0.735 -1.148,1.731 -1.148,2.771c0,1.039 0.413,2.035 1.148,2.77c0.735,0.735 1.731,1.148 2.77,1.148l0.685,0c1.039,0 2.036,-0.413 2.77,-1.148c0.735,-0.735 1.148,-1.731 1.148,-2.77Z" style="fill:#fff;stroke:#fff;stroke-width:2.71px;stroke-linecap:round;stroke-miterlimit:1.5;"/><path id="path2528-1" d="M304.328,34.894c-0.001,-1.04 -0.413,-2.036 -1.148,-2.771c-0.735,-0.735 -1.732,-1.147 -2.77,-1.147l-0.684,0c-1.04,0 -2.036,0.413 -2.771,1.147c-0.735,0.735 -1.147,1.731 -1.147,2.771c-0,1.039 0.412,2.035 1.147,2.77c0.735,0.735 1.731,1.148 2.771,1.148l0.683,0c1.04,0 2.036,-0.413 2.771,-1.148c0.735,-0.735 1.147,-1.731 1.147,-2.77l0.001,0Z" style="fill:#fff;stroke:#fff;stroke-width:2.71px;stroke-linecap:round;stroke-miterlimit:1.5;"/><path id="path2530-1" d="M289.614,34.894c-0,-1.04 -0.414,-2.036 -1.148,-2.771c-0.735,-0.735 -1.731,-1.147 -2.77,-1.147l-0.685,0c-1.039,0 -2.035,0.413 -2.77,1.147c-0.735,0.735 -1.148,1.731 -1.148,2.771c0,1.039 0.413,2.035 1.148,2.77c0.735,0.735 1.731,1.148 2.77,1.148l0.685,0c1.039,0 2.036,-0.413 2.77,-1.148c0.735,-0.735 1.148,-1.731 1.148,-2.77Z" style="fill:#fff;stroke:#fff;stroke-width:2.71px;stroke-linecap:round;stroke-miterlimit:1.5;"/><circle id="circle2532-5" cx="236.476" cy="67.635" r="13.377" style="fill:#fff;stroke:#fff;stroke-width:2.71px;stroke-linecap:round;stroke-miterlimit:1.5;"/><circle id="circle2534-2" cx="233.852" cy="62.218" r="2.381" style="fill:#fff;stroke:#fff;stroke-width:2.71px;stroke-linecap:round;stroke-miterlimit:1.5;"/><path id="path2536-2" d="M223.93,72.282l5.038,-4.647l4.883,5.174l6.748,-8.209l8.269,8.074" style="fill:#fff;stroke:#fff;stroke-width:2.71px;stroke-linecap:round;stroke-miterlimit:1.5;"/><path id="path2506-4-6" d="M69.895,116.941l49.412,-0" style="fill:none;stroke:#fff;stroke-width:1.99px;stroke-linecap:round;stroke-miterlimit:1.5;"/><path id="path2508-4-4" d="M82.668,121.507l23.866,-0.001" style="fill:none;stroke:#fff;stroke-width:1.99px;stroke-linecap:round;stroke-miterlimit:1.5;"/><path id="path2510-1-6" d="M64.74,83.167l10.028,0" style="fill:none;stroke:#fff;stroke-width:1.99px;stroke-linecap:round;stroke-miterlimit:1.5;"/><path id="path2512-5-7" d="M78.748,83.167l10.029,0" style="fill:none;stroke:#fff;stroke-width:1.99px;stroke-linecap:round;stroke-miterlimit:1.5;"/><path id="path2514-2-4" d="M92.756,83.167l10.029,0" style="fill:none;stroke:#fff;stroke-width:1.99px;stroke-linecap:round;stroke-miterlimit:1.5;"/><path id="path2516-0-6" d="M106.765,83.167l10.029,0" style="fill:none;stroke:#fff;stroke-width:1.99px;stroke-linecap:round;stroke-miterlimit:1.5;"/><path id="path2522-9-8" d="M104.841,140.905c-0,-0.667 -0.265,-1.308 -0.737,-1.78c-0.472,-0.472 -1.113,-0.737 -1.78,-0.737l-15.446,0c-0.667,0 -1.308,0.265 -1.78,0.737c-0.472,0.472 -0.737,1.113 -0.737,1.78c0,0.668 0.265,1.308 0.737,1.78c0.472,0.472 1.113,0.737 1.78,0.737l15.446,0c0.668,0 1.308,-0.265 1.78,-0.737c0.472,-0.472 0.737,-1.112 0.737,-1.78Z" style="fill:#fff;stroke:#fff;stroke-width:1.74px;stroke-linecap:round;stroke-miterlimit:1.5;"/><path id="path2524-3-4" d="M57.08,83.167c-0,-0.668 -0.266,-1.308 -0.738,-1.78c-0.472,-0.472 -1.112,-0.737 -1.779,-0.737l-10.473,0c-0.667,0 -1.308,0.265 -1.78,0.737c-0.472,0.472 -0.737,1.112 -0.737,1.78c-0,0.668 0.265,1.308 0.737,1.78c0.472,0.472 1.113,0.737 1.78,0.737l10.472,0c0.668,0 1.308,-0.265 1.78,-0.737c0.472,-0.472 0.738,-1.112 0.738,-1.78Z" style="fill:#fff;stroke:#fff;stroke-width:1.74px;stroke-linecap:round;stroke-miterlimit:1.5;"/><path id="path2526-5-7" d="M147.802,83.167c0,-0.668 -0.265,-1.308 -0.737,-1.78c-0.472,-0.472 -1.112,-0.737 -1.78,-0.737l-0.44,0c-0.668,0 -1.308,0.265 -1.779,0.737c-0.473,0.472 -0.738,1.112 -0.738,1.78c0,0.668 0.265,1.308 0.738,1.78c0.472,0.472 1.112,0.737 1.779,0.737l0.44,0c0.668,0 1.308,-0.265 1.78,-0.737c0.472,-0.472 0.737,-1.112 0.737,-1.78Z" style="fill:#fff;stroke:#fff;stroke-width:1.74px;stroke-linecap:round;stroke-miterlimit:1.5;"/><path id="path2528-1-9" d="M138.349,83.167c-0,-0.668 -0.265,-1.308 -0.737,-1.78c-0.472,-0.472 -1.113,-0.737 -1.78,-0.737l-0.439,0c-0.668,0 -1.309,0.265 -1.781,0.737c-0.472,0.472 -0.737,1.112 -0.737,1.78c0,0.668 0.265,1.308 0.737,1.78c0.472,0.472 1.113,0.737 1.781,0.737l0.439,0c0.668,0 1.308,-0.265 1.78,-0.737c0.472,-0.472 0.737,-1.112 0.737,-1.78l0,0Z" style="fill:#fff;stroke:#fff;stroke-width:1.74px;stroke-linecap:round;stroke-miterlimit:1.5;"/><path id="path2530-1-4" d="M128.896,83.167c-0,-0.668 -0.266,-1.308 -0.737,-1.78c-0.473,-0.472 -1.113,-0.737 -1.78,-0.737l-0.44,0c-0.667,0 -1.307,0.265 -1.779,0.737c-0.473,0.472 -0.738,1.112 -0.738,1.78c-0,0.668 0.265,1.308 0.738,1.78c0.472,0.472 1.112,0.737 1.779,0.737l0.44,0c0.667,0 1.308,-0.265 1.78,-0.737c0.472,-0.472 0.737,-1.112 0.737,-1.78Z" style="fill:#fff;stroke:#fff;stroke-width:1.74px;stroke-linecap:round;stroke-miterlimit:1.5;"/><circle id="circle2532-5-5" cx="94.757" cy="104.202" r="8.594" style="fill:#fff;stroke:#fff;stroke-width:1.74px;stroke-linecap:round;stroke-miterlimit:1.5;"/><circle id="circle2534-2-6" cx="93.071" cy="100.722" r="1.53" style="fill:#fff;stroke:#fff;stroke-width:1.74px;stroke-linecap:round;stroke-miterlimit:1.5;"/><path id="path2536-2-8" d="M86.697,107.187l3.237,-2.985l3.137,3.324l4.335,-5.274l5.313,5.187" style="fill:#fff;stroke:#fff;stroke-width:1.74px;stroke-linecap:round;stroke-miterlimit:1.5;"/><path id="path2538-2-4" d="M47.915,114.828l-3.919,4.334l3.919,4.573" style="fill:#fff;stroke:#fff;stroke-width:1.74px;stroke-linecap:round;stroke-miterlimit:1.5;"/><path id="path2540-2-2" d="M141.287,123.735l3.919,-4.334l-3.919,-4.573" style="fill:#fff;stroke:#fff;stroke-width:1.74px;stroke-linecap:round;stroke-miterlimit:1.5;"/></svg>