<?xml version="1.0" encoding="UTF-8" standalone="no"?>
<svg
   width="100"
   height="44.206001"
   viewBox="0 0 100 44.206001"
   version="1.1"
   xml:space="preserve"
   style="clip-rule:evenodd;fill-rule:evenodd;stroke-linecap:round;stroke-linejoin:round;stroke-miterlimit:1.5"
   id="svg2548"
   sodipodi:docname="responsive-web-design.svg"
   inkscape:version="1.1 (c68e22c387, 2021-05-23)"
   xmlns:inkscape="http://www.inkscape.org/namespaces/inkscape"
   xmlns:sodipodi="http://sodipodi.sourceforge.net/DTD/sodipodi-0.dtd"
   xmlns="http://www.w3.org/2000/svg"
   xmlns:svg="http://www.w3.org/2000/svg"><defs
     id="defs2552" /><sodipodi:namedview
     id="namedview2550"
     pagecolor="#ffffff"
     bordercolor="#666666"
     borderopacity="1.0"
     inkscape:pageshadow="2"
     inkscape:pageopacity="0.0"
     inkscape:pagecheckerboard="0"
     showgrid="false"
     fit-margin-top="0"
     fit-margin-left="0"
     fit-margin-right="0"
     fit-margin-bottom="0"
     inkscape:zoom="10.098789"
     inkscape:cx="52.481539"
     inkscape:cy="18.566582"
     inkscape:window-width="1920"
     inkscape:window-height="1017"
     inkscape:window-x="-8"
     inkscape:window-y="-8"
     inkscape:window-maximized="1"
     inkscape:current-layer="svg2548" /><clipPath
     id="_clip1"><rect
       id="web-design"
       x="0"
       y="0"
       width="265.5"
       height="226" /></clipPath><path
     style=#ffffff;stroke-width:0.214592"
     d="M 1.2905529,43.830131 C 0.32830342,43.347519 0.00710119,42.678336 0.00317791,41.148063 L 2.1289376e-8,39.914159 H 22.210298 44.420595 l -0.0032,1.233904 c -0.004,1.530273 -0.325126,2.199456 -1.287377,2.682068 -0.696328,0.349246 -2.14377,0.375204 -20.919757,0.375204 -18.7759852,0 -20.2234315,-0.02595 -20.9197587,-0.375204 z m 45.9197551,0.282723 c 0,-0.05123 0.532589,-0.799616 1.183529,-1.663088 1.137402,-1.50876 2.464539,-4.372675 2.464539,-5.318386 0,-0.424787 0.118837,-0.436106 4.57855,-0.436106 h 4.578553 l 0.363462,1.307298 c 0.462576,1.663788 1.122236,2.959549 2.366391,4.648237 0.543716,0.737994 0.98858,1.389819 0.98858,1.448501 0,0.05868 -3.717813,0.106693 -8.261804,0.106693 -4.543987,0 -8.2618,-0.04192 -8.2618,-0.09315 z M 66.972262,43.97534 c -1.11119,-0.451304 -1.078297,-0.0284 -1.085606,-13.957135 -0.0068,-12.839641 -0.0012,-13.014835 0.437937,-13.57296 l 0.444759,-0.565418 H 77.038631 87.30791 l 0.444759,0.565418 c 0.438786,0.557824 0.444759,0.739285 0.444759,13.507343 v 12.941929 l -0.517766,0.602093 -0.517758,0.602097 -9.836318,0.04331 C 71.300934,44.168564 67.288929,44.10396 66.972262,43.97534 Z m 10.675272,-1.461807 c 0.112514,-0.795747 -0.556472,-1.119006 -1.12963,-0.545844 -0.25884,0.25884 -0.283861,0.435688 -0.108104,0.764092 0.319699,0.597366 1.142937,0.452205 1.237734,-0.218248 z m 7.064755,-12.48509 -0.05563,-10.744087 -7.618025,0.01247 -7.618024,0.01247 -0.05563,10.73162 -0.05563,10.731613 h 7.729291 7.729291 z m 6.56756,13.933771 c -0.874297,-0.437072 -0.936499,-0.975518 -0.936499,-8.106465 0,-6.582686 0.01597,-6.848224 0.44476,-7.393336 l 0.444759,-0.565423 h 3.916978 c 3.816903,0 3.928893,0.01267 4.383564,0.496664 C 99.993054,28.882923 100,28.995992 100,35.987908 c 0,6.665585 -0.02494,7.128422 -0.409773,7.604191 -0.399227,0.49357 -0.50553,0.507798 -4.130902,0.552928 -2.304064,0.02868 -3.89567,-0.04093 -4.179476,-0.182813 z m 4.48611,-1.097412 c 0.165008,-0.473051 -0.08939,-0.804721 -0.617242,-0.804721 -0.404694,0 -0.513523,0.113691 -0.513523,0.536479 0,0.424252 0.108491,0.53648 0.518599,0.53648 0.285229,0 0.560704,-0.120708 0.612166,-0.268238 z m 2.946487,-7.135195 V 30.4721 h -3.540768 -3.540773 v 5.257507 5.257511 h 3.540773 3.540768 z M 96.67382,29.184545 c 0,-0.24584 -0.324381,-0.337178 -1.373052,-0.386604 -1.37129,-0.06463 -1.920103,0.133801 -1.636993,0.591883 0.09406,0.152193 0.683149,0.21917 1.580013,0.179639 1.100067,-0.04848 1.430032,-0.137304 1.430032,-0.384918 z M 4.9356362,27.022114 V 15.846813 l 0.6272697,-0.627271 0.6272697,-0.62727 H 22.210312 38.23045 l 0.627267,0.62727 0.62727,0.627271 V 27.022114 38.19742 H 22.210312 4.9356362 Z M 36.051511,26.394844 V 18.025749 H 22.210312 8.3691121 v 8.369095 8.3691 H 22.210312 36.051511 Z m 5.150215,6.650483 v -1.718621 l 11.427035,0.05553 11.427039,0.05553 0.06267,1.663088 0.06268,1.663093 H 52.691437 41.201726 Z M 77.896998,8.6909855 V 3.4334754 H 56.008591 34.120182 V 8.1545049 12.875534 H 32.403444 30.686706 V 6.904357 c 0,-5.96413885 6.43e-4,-5.97172434 0.496663,-6.43776738 L 31.680032,-4.9516668e-7 h 24.26497 c 23.566274,0 24.279553,0.0118024251667 24.771574,0.40998070516668 l 0.506603,0.4099807 0.06255,6.56426739 0.06255,6.5642677 h -1.72564 -1.725645 z"
     id="path2978" /><path
     d="m 72.599587,30.596834 9.229402,-1.17e-4"
     style="clip-rule:evenodd;fill:none;fill-rule:evenodd;stroke:#ffffff;stroke-width:0.421219px;stroke-linecap:round;stroke-linejoin:round;stroke-miterlimit:1.5"
     id="path2506-4-6-6" /><path
     d="m 74.350312,31.692509 5.727951,-1.21e-4"
     style="clip-rule:evenodd;fill:none;fill-rule:evenodd;stroke:#ffffff;stroke-width:0.477467px;stroke-linecap:round;stroke-linejoin:round;stroke-miterlimit:1.5"
     id="path2508-4-4-2" /><path
     d="m 79.67182,38.77796 c 0,-0.16019 -0.06362,-0.313935 -0.176904,-0.427217 -0.113278,-0.113277 -0.267023,-0.176899 -0.427213,-0.176899 -0.94491,0 -2.761921,0 -3.706947,0 -0.160194,0 -0.313939,0.06362 -0.427217,0.176899 -0.113277,0.113282 -0.176904,0.267027 -0.176904,0.427217 v 0 c 0,0.160189 0.06363,0.313935 0.176904,0.427212 0.113278,0.113282 0.267023,0.176904 0.427217,0.176904 0.94491,0 2.762037,0 3.706947,0 0.160311,0 0.313935,-0.06362 0.427213,-0.176904 0.113282,-0.113277 0.176904,-0.267023 0.176904,-0.427212 z"
     style="clip-rule:evenodd;fill:none;fill-rule:evenodd;stroke:#ffffff;stroke-width:0.417783px;stroke-linecap:round;stroke-linejoin:round;stroke-miterlimit:1.5"
     id="path2522-9-8-0" /><path
     d="m 82.62402,20.95743 h 1.143367"
     style="clip-rule:evenodd;fill:none;fill-rule:evenodd;stroke:#ffffff;stroke-width:0.226803px;stroke-linecap:round;stroke-linejoin:round;stroke-miterlimit:1.5"
     id="path2516-0-6-7" /><path
     d="m 82.62402,20.575271 h 1.143367"
     style="clip-rule:evenodd;fill:none;fill-rule:evenodd;stroke:#ffffff;stroke-width:0.226803px;stroke-linecap:round;stroke-linejoin:round;stroke-miterlimit:1.5"
     id="path2516-0-6-7-0" /><path
     d="m 82.62402,21.339589 h 1.143367"
     style="clip-rule:evenodd;fill:none;fill-rule:evenodd;stroke:#ffffff;stroke-width:0.226803px;stroke-linecap:round;stroke-linejoin:round;stroke-miterlimit:1.5"
     id="path2516-0-6-7-0-4" /><path
     d="m 74.478192,20.95743 c 0,-0.16031 -0.06374,-0.313936 -0.17702,-0.427215 -0.113282,-0.113399 -0.266906,-0.176902 -0.427096,-0.176902 -0.69257,0 -1.820828,0 -2.513394,0 -0.160194,0 -0.313818,0.06362 -0.427096,0.176902 -0.113282,0.113279 -0.177024,0.266905 -0.177024,0.427215 0,0.160191 0.06374,0.313816 0.177024,0.427096 0.113278,0.113399 0.266902,0.177022 0.427096,0.177022 0.692566,0 1.820824,0 2.513273,0 0.160311,0 0.313935,-0.06362 0.427217,-0.177022 0.113277,-0.11328 0.17702,-0.266905 0.17702,-0.427096 z"
     style="clip-rule:evenodd;fill:none;fill-rule:evenodd;stroke:#ffffff;stroke-width:0.417783px;stroke-linecap:round;stroke-linejoin:round;stroke-miterlimit:1.5;stroke-opacity:1"
     id="path2524-3-4-1" /><circle
     cx="77.251648"
     cy="27.539366"
     r="2.0625455"
     style="clip-rule:evenodd;fill:none;fill-rule:evenodd;stroke:#ffffff;stroke-width:0.417783px;stroke-linecap:round;stroke-linejoin:round;stroke-miterlimit:1.5"
     id="circle2532-5-5-5" /><circle
     cx="76.847115"
     cy="26.704151"
     r="0.36717346"
     style="clip-rule:evenodd;fill:none;fill-rule:evenodd;stroke:#ffffff;stroke-width:0.417783px;stroke-linecap:round;stroke-linejoin:round;stroke-miterlimit:1.5"
     id="circle2534-2-6-4" /><path
     d="m 75.317303,28.255806 0.776724,-0.716445 0.75297,0.797734 1.040403,-1.265772 1.275081,1.245003"
     style="clip-rule:evenodd;fill:none;fill-rule:evenodd;stroke:#ffffff;stroke-width:0.417783px;stroke-linecap:round;stroke-linejoin:round;stroke-miterlimit:1.5"
     id="path2536-2-8-6" /><path
     d="m 71.128173,30.089643 -0.94073,1.040046 0.940614,1.097581"
     style="clip-rule:evenodd;fill:none;fill-rule:evenodd;stroke:#ffffff;stroke-width:0.417783px;stroke-linecap:round;stroke-linejoin:round;stroke-miterlimit:1.5"
     id="path2538-2-4-4" /><path
     d="m 83.300398,32.22727 0.940614,-1.040162 -0.940614,-1.097465"
     style="clip-rule:evenodd;fill:none;fill-rule:evenodd;stroke:#ffffff;stroke-width:0.417783px;stroke-linecap:round;stroke-linejoin:round;stroke-miterlimit:1.5"
     id="path2540-2-2-7" /><path
     d="m 93.24225,35.628791 3.928869,-5.2e-5"
     style="clip-rule:evenodd;fill:none;fill-rule:evenodd;stroke:#ffffff;stroke-width:0.17931px;stroke-linecap:round;stroke-linejoin:round;stroke-miterlimit:1.5"
     id="path2506-4-6-6-2" /><path
     d="m 93.987517,36.095208 2.438336,-5.2e-5"
     style="clip-rule:evenodd;fill:none;fill-rule:evenodd;stroke:#ffffff;stroke-width:0.203254px;stroke-linecap:round;stroke-linejoin:round;stroke-miterlimit:1.5"
     id="path2508-4-4-2-8" /><path
     d="m 96.252831,40.170992 c 0,-0.06819 -0.02707,-0.13364 -0.0753,-0.181859 -0.04822,-0.04822 -0.113672,-0.07531 -0.181864,-0.07531 -0.40224,0 -1.175721,0 -1.578013,0 -0.06819,0 -0.133636,0.02707 -0.18186,0.07531 -0.04822,0.04822 -0.0753,0.113667 -0.0753,0.181859 v 0 c 0,0.06819 0.02707,0.13364 0.0753,0.181864 0.04822,0.04822 0.113672,0.0753 0.18186,0.0753 0.40224,0 1.175773,0 1.578013,0 0.06824,0 0.133641,-0.02707 0.181864,-0.0753 0.04822,-0.04822 0.0753,-0.113672 0.0753,-0.181864 z"
     style="clip-rule:evenodd;fill:none;fill-rule:evenodd;stroke:#ffffff;stroke-width:0.177847px;stroke-linecap:round;stroke-linejoin:round;stroke-miterlimit:1.5"
     id="path2522-9-8-0-5" /><path
     d="M 92.903761,31.131061 H 92.417042"
     style="clip-rule:evenodd;fill:none;fill-rule:evenodd;stroke:#ffffff;stroke-width:0.0965478px;stroke-linecap:round;stroke-linejoin:round;stroke-miterlimit:1.5"
     id="path2516-0-6-7-6" /><path
     d="M 92.903761,30.968381 H 92.417042"
     style="clip-rule:evenodd;fill:none;fill-rule:evenodd;stroke:#ffffff;stroke-width:0.0965478px;stroke-linecap:round;stroke-linejoin:round;stroke-miterlimit:1.5"
     id="path2516-0-6-7-0-2" /><path
     d="M 92.903761,31.293744 H 92.417042"
     style="clip-rule:evenodd;fill:none;fill-rule:evenodd;stroke:#ffffff;stroke-width:0.0965478px;stroke-linecap:round;stroke-linejoin:round;stroke-miterlimit:1.5"
     id="path2516-0-6-7-0-4-0" /><path
     d="m 96.371366,31.131061 c 0,-0.06824 0.02715,-0.133641 0.07536,-0.18186 0.04822,-0.04828 0.11362,-0.07531 0.181807,-0.07531 0.294824,0 0.775111,0 1.06993,0 0.06819,0 0.133588,0.02707 0.181812,0.07531 0.04822,0.04822 0.07536,0.11362 0.07536,0.18186 0,0.06819 -0.02711,0.133587 -0.07536,0.181811 -0.04822,0.04827 -0.11362,0.07536 -0.181812,0.07536 -0.294819,0 -0.775106,0 -1.069877,0 -0.06824,0 -0.133641,-0.02707 -0.18186,-0.07536 -0.04822,-0.04822 -0.07536,-0.11362 -0.07536,-0.181811 z"
     style="clip-rule:evenodd;fill:none;fill-rule:evenodd;stroke:#ffffff;stroke-width:0.177847px;stroke-linecap:round;stroke-linejoin:round;stroke-miterlimit:1.5;stroke-opacity:1"
     id="path2524-3-4-1-1" /><circle
     cx="95.222588"
     cy="34.327251"
     r="0.87800604"
     style="clip-rule:evenodd;fill:none;fill-rule:evenodd;stroke:#ffffff;stroke-width:0.177847px;stroke-linecap:round;stroke-linejoin:round;stroke-miterlimit:1.5"
     id="circle2532-5-5-5-1" /><circle
     cx="95.050377"
     cy="33.97171"
     r="0.15630226"
     style="clip-rule:evenodd;fill:none;fill-rule:evenodd;stroke:#ffffff;stroke-width:0.177847px;stroke-linecap:round;stroke-linejoin:round;stroke-miterlimit:1.5"
     id="circle2534-2-6-4-3" /><path
     d="m 94.399154,34.632238 0.330645,-0.304984 0.320532,0.339587 0.442888,-0.538829 0.542791,0.529987"
     style="clip-rule:evenodd;fill:none;fill-rule:evenodd;stroke:#ffffff;stroke-width:0.177847px;stroke-linecap:round;stroke-linejoin:round;stroke-miterlimit:1.5"
     id="path2536-2-8-6-5" /><path
     d="m 92.615885,35.412884 -0.400462,0.44274 0.40041,0.46723"
     style="clip-rule:evenodd;fill:none;fill-rule:evenodd;stroke:#ffffff;stroke-width:0.177847px;stroke-linecap:round;stroke-linejoin:round;stroke-miterlimit:1.5"
     id="path2538-2-4-4-1" /><path
     d="m 97.797485,36.322854 0.400409,-0.442788 -0.400409,-0.467182"
     style="clip-rule:evenodd;fill:none;fill-rule:evenodd;stroke:#ffffff;stroke-width:0.177847px;stroke-linecap:round;stroke-linejoin:round;stroke-miterlimit:1.5"
     id="path2540-2-2-7-5" /><path
     d="m 46.966669,20.491481 18.458623,-1.86e-4"
     style="clip-rule:evenodd;fill:none;fill-rule:evenodd;stroke:#ffffff;stroke-width:0.743191px;stroke-linecap:round;stroke-linejoin:round;stroke-miterlimit:1.5"
     id="path2506-4" /><path
     d="M 36.697132,5.0564259 75.694643,5.0562891"
     style="clip-rule:evenodd;fill:none;fill-rule:evenodd;stroke:#ffffff;stroke-width:0.926571px;stroke-linecap:round;stroke-linejoin:round;stroke-miterlimit:1.5"
     id="path2506-4-9" /><path
     d="m 51.73814,22.196916 8.915684,-1.85e-4"
     style="clip-rule:evenodd;fill:none;fill-rule:evenodd;stroke:#ffffff;stroke-width:0.743191px;stroke-linecap:round;stroke-linejoin:round;stroke-miterlimit:1.5"
     id="path2508-4" /><path
     d="m 45.040693,7.8745677 h 3.746422"
     style="clip-rule:evenodd;fill:none;fill-rule:evenodd;stroke:#ffffff;stroke-width:0.743191px;stroke-linecap:round;stroke-linejoin:round;stroke-miterlimit:1.5"
     id="path2510-1" /><path
     d="m 50.273682,7.8745677 h 3.746422"
     style="clip-rule:evenodd;fill:none;fill-rule:evenodd;stroke:#ffffff;stroke-width:0.743191px;stroke-linecap:round;stroke-linejoin:round;stroke-miterlimit:1.5"
     id="path2512-5" /><path
     d="m 55.50667,7.8745677 h 3.746612"
     style="clip-rule:evenodd;fill:none;fill-rule:evenodd;stroke:#ffffff;stroke-width:0.743191px;stroke-linecap:round;stroke-linejoin:round;stroke-miterlimit:1.5"
     id="path2514-2" /><path
     d="m 60.739848,7.8745677 h 3.746608"
     style="clip-rule:evenodd;fill:none;fill-rule:evenodd;stroke:#ffffff;stroke-width:0.743191px;stroke-linecap:round;stroke-linejoin:round;stroke-miterlimit:1.5"
     id="path2516-0" /><path
     d="m 60.02118,28.035224 c 0,-0.249339 -0.09903,-0.488646 -0.27535,-0.66497 -0.176321,-0.176321 -0.415631,-0.27535 -0.664971,-0.27535 -1.470774,0 -4.298984,0 -5.769943,0 -0.249343,0 -0.48865,0.09903 -0.664971,0.27535 -0.17632,0.176324 -0.275353,0.415631 -0.275353,0.66497 v 0 c 0,0.24934 0.09903,0.488647 0.275353,0.664971 0.176321,0.17632 0.415628,0.27535 0.664971,0.27535 1.470774,0 4.299169,0 5.769943,0 0.249529,0 0.48865,-0.09903 0.664971,-0.27535 0.17632,-0.176324 0.27535,-0.415631 0.27535,-0.664971 z"
     style="clip-rule:evenodd;fill:none;fill-rule:evenodd;stroke:#ffffff;stroke-width:0.650292px;stroke-linecap:round;stroke-linejoin:round;stroke-miterlimit:1.5"
     id="path2522-9" /><path
     d="m 42.179223,7.8745677 c 0,-0.2495264 -0.09922,-0.4886479 -0.275538,-0.6649699 C 41.727364,7.03309 41.488242,6.9342456 41.238899,6.9342456 c -1.077995,0 -2.834156,0 -3.912153,0 -0.24934,0 -0.488462,0.09903 -0.664784,0.2753522 -0.176322,0.176322 -0.275538,0.4154435 -0.275538,0.6649699 0,0.2493401 0.09922,0.4884616 0.275538,0.6647836 0.176322,0.1765078 0.415444,0.275538 0.664784,0.275538 1.077997,0 2.834158,0 3.911968,0 0.249528,0 0.48865,-0.09903 0.664971,-0.275538 0.17632,-0.176322 0.275538,-0.4154435 0.275538,-0.6647836 z"
     style="clip-rule:evenodd;fill:none;fill-rule:evenodd;stroke:#ffffff;stroke-width:0.650292px;stroke-linecap:round;stroke-linejoin:round;stroke-miterlimit:1.5;stroke-opacity:1"
     id="path2524-3" /><path
     d="m 76.070007,7.8745677 c 0,-0.2495264 -0.09921,-0.4886479 -0.275538,-0.6649699 C 75.618148,7.03309 75.379026,6.9342456 75.129687,6.9342456 c -0.05462,0 -0.109621,0 -0.164244,0 -0.249529,0 -0.488651,0.09903 -0.664786,0.2753522 -0.176505,0.176322 -0.275539,0.4154435 -0.275539,0.6649699 0,0.2493401 0.09903,0.4884616 0.275539,0.6647836 0.17632,0.1765078 0.415442,0.275538 0.664786,0.275538 0.05462,0 0.109621,0 0.164244,0 0.249339,0 0.488646,-0.09903 0.664782,-0.275538 0.176509,-0.176322 0.275538,-0.4154435 0.275538,-0.6647836 z"
     style="clip-rule:evenodd;fill:none;fill-rule:evenodd;stroke:#ffffff;stroke-width:0.650292px;stroke-linecap:round;stroke-linejoin:round;stroke-miterlimit:1.5"
     id="path2526-5" /><path
     d="M 72.53874,7.8745677 C 72.538551,7.6250413 72.439522,7.3859198 72.263202,7.2095978 72.086877,7.03309 71.84757,6.9342456 71.598416,6.9342456 c -0.05462,0 -0.109621,0 -0.164244,0 -0.249525,0 -0.488647,0.09903 -0.664971,0.2753522 -0.176321,0.176322 -0.27535,0.4154435 -0.27535,0.6649699 0,0.2493401 0.09903,0.4884616 0.27535,0.6647836 0.176324,0.1765078 0.415446,0.275538 0.664971,0.275538 0.05462,0 0.10962,0 0.164059,0 0.249524,0 0.488646,-0.09903 0.664971,-0.275538 0.17632,-0.176322 0.275349,-0.4154435 0.275349,-0.6647836 v 0 z"
     style="clip-rule:evenodd;fill:none;fill-rule:evenodd;stroke:#ffffff;stroke-width:0.650292px;stroke-linecap:round;stroke-linejoin:round;stroke-miterlimit:1.5"
     id="path2528-1" /><path
     d="m 69.007284,7.8745677 c 0,-0.2495264 -0.09922,-0.4886479 -0.275354,-0.6649699 C 68.555425,7.03309 68.316303,6.9342456 68.06696,6.9342456 c -0.05462,0 -0.109617,0 -0.164245,0 -0.249339,0 -0.488461,0.09903 -0.664781,0.2753522 -0.17651,0.176322 -0.275539,0.4154435 -0.275539,0.6649699 0,0.2493401 0.09903,0.4884616 0.275539,0.6647836 0.17632,0.1765078 0.415442,0.275538 0.664781,0.275538 0.05463,0 0.109621,0 0.164245,0 0.249343,0 0.48865,-0.09903 0.66497,-0.275538 0.176325,-0.176322 0.275354,-0.4154435 0.275354,-0.6647836 z"
     style="clip-rule:evenodd;fill:none;fill-rule:evenodd;stroke:#ffffff;stroke-width:0.650292px;stroke-linecap:round;stroke-linejoin:round;stroke-miterlimit:1.5"
     id="path2530-1" /><circle
     cx="56.254135"
     cy="15.732459"
     r="3.2103968"
     style="clip-rule:evenodd;fill:none;fill-rule:evenodd;stroke:#ffffff;stroke-width:0.650292px;stroke-linecap:round;stroke-linejoin:round;stroke-miterlimit:1.5"
     id="circle2532-5" /><circle
     cx="55.62447"
     cy="14.432433"
     r="0.57151347"
     style="clip-rule:evenodd;fill:none;fill-rule:evenodd;stroke:#ffffff;stroke-width:0.650292px;stroke-linecap:round;stroke-linejoin:round;stroke-miterlimit:1.5"
     id="circle2534-2" /><path
     d="m 53.243283,16.847618 1.208985,-1.115158 1.172012,1.241686 1.619411,-1.970199 1.98469,1.93787"
     style="clip-rule:evenodd;fill:none;fill-rule:evenodd;stroke:#ffffff;stroke-width:0.650292px;stroke-linecap:round;stroke-linejoin:round;stroke-miterlimit:1.5"
     id="path2536-2" /><path
     d="m 16.274857,27.565959 11.858891,-1.21e-4"
     style="clip-rule:evenodd;fill:none;fill-rule:evenodd;stroke:#ffffff;stroke-width:0.477467px;stroke-linecap:round;stroke-linejoin:round;stroke-miterlimit:1.5"
     id="path2506-4-6" /><path
     d="m 19.340325,28.66163 5.727954,-1.21e-4"
     style="clip-rule:evenodd;fill:none;fill-rule:evenodd;stroke:#ffffff;stroke-width:0.477467px;stroke-linecap:round;stroke-linejoin:round;stroke-miterlimit:1.5"
     id="path2508-4-4" /><path
     d="m 15.037496,19.460119 h 2.40692"
     style="clip-rule:evenodd;fill:none;fill-rule:evenodd;stroke:#ffffff;stroke-width:0.477467px;stroke-linecap:round;stroke-linejoin:round;stroke-miterlimit:1.5"
     id="path2510-1-6" /><path
     d="m 18.399473,19.460119 h 2.40692"
     style="clip-rule:evenodd;fill:none;fill-rule:evenodd;stroke:#ffffff;stroke-width:0.477467px;stroke-linecap:round;stroke-linejoin:round;stroke-miterlimit:1.5"
     id="path2512-5-7" /><path
     d="m 21.76145,19.460119 h 2.407039"
     style="clip-rule:evenodd;fill:none;fill-rule:evenodd;stroke:#ffffff;stroke-width:0.477467px;stroke-linecap:round;stroke-linejoin:round;stroke-miterlimit:1.5"
     id="path2514-2-4" /><path
     d="m 25.123546,19.460119 h 2.407039"
     style="clip-rule:evenodd;fill:none;fill-rule:evenodd;stroke:#ffffff;stroke-width:0.477467px;stroke-linecap:round;stroke-linejoin:round;stroke-miterlimit:1.5"
     id="path2516-0-6" /><path
     d="m 24.661834,33.317273 c 0,-0.160189 -0.06362,-0.313935 -0.176903,-0.427216 -0.113279,-0.113278 -0.267024,-0.1769 -0.427214,-0.1769 -0.944911,0 -2.761919,0 -3.706948,0 -0.160191,0 -0.313936,0.06362 -0.427216,0.1769 -0.113279,0.113281 -0.176902,0.267027 -0.176902,0.427216 v 0 c 0,0.16019 0.06362,0.313935 0.176902,0.427217 0.11328,0.113277 0.267025,0.176899 0.427216,0.176899 0.94491,0 2.762037,0 3.706948,0 0.160309,0 0.313935,-0.06362 0.427214,-0.176899 0.11328,-0.113282 0.176903,-0.267027 0.176903,-0.427217 z"
     style="clip-rule:evenodd;fill:none;fill-rule:evenodd;stroke:#ffffff;stroke-width:0.417783px;stroke-linecap:round;stroke-linejoin:round;stroke-miterlimit:1.5"
     id="path2522-9-8" /><path
     d="m 13.199123,19.460119 c 0,-0.16031 -0.06374,-0.313936 -0.177022,-0.427215 -0.11328,-0.113399 -0.266905,-0.176903 -0.427096,-0.176903 -0.692568,0 -1.820827,0 -2.513395,0 -0.160191,0 -0.3138169,0.06362 -0.427096,0.176903 -0.1132796,0.113279 -0.1770216,0.266905 -0.1770216,0.427215 0,0.160191 0.063742,0.313816 0.1770216,0.427096 0.1132791,0.113398 0.266905,0.177021 0.427096,0.177021 0.692568,0 1.820827,0 2.513276,0 0.16031,0 0.313935,-0.06362 0.427215,-0.177021 0.113279,-0.11328 0.177022,-0.266905 0.177022,-0.427096 z"
     style="clip-rule:evenodd;fill:none;fill-rule:evenodd;stroke:#ffffff;stroke-width:0.417783px;stroke-linecap:round;stroke-linejoin:round;stroke-miterlimit:1.5;stroke-opacity:1"
     id="path2524-3-4" /><path
     d="m 34.972532,19.460119 c 0,-0.16031 -0.06374,-0.313936 -0.177021,-0.427215 -0.113279,-0.113399 -0.266905,-0.176903 -0.427096,-0.176903 -0.03509,0 -0.07043,0 -0.10552,0 -0.160311,0 -0.313936,0.06362 -0.427096,0.176903 -0.113399,0.113279 -0.177022,0.266905 -0.177022,0.427215 0,0.160191 0.06362,0.313816 0.177022,0.427096 0.113279,0.113398 0.266905,0.177021 0.427096,0.177021 0.03509,0 0.07043,0 0.10552,0 0.160191,0 0.313936,-0.06362 0.427096,-0.177021 0.113399,-0.11328 0.177021,-0.266905 0.177021,-0.427096 z"
     style="clip-rule:evenodd;fill:none;fill-rule:evenodd;stroke:#ffffff;stroke-width:0.417783px;stroke-linecap:round;stroke-linejoin:round;stroke-miterlimit:1.5"
     id="path2526-5-7" /><path
     d="m 32.70384,19.460119 c -1.2e-4,-0.16031 -0.06374,-0.313936 -0.177022,-0.427215 -0.113279,-0.113399 -0.267024,-0.176903 -0.427096,-0.176903 -0.03509,0 -0.07043,0 -0.10552,0 -0.16031,0 -0.313936,0.06362 -0.427215,0.176903 -0.11328,0.113279 -0.176903,0.266905 -0.176903,0.427215 0,0.160191 0.06362,0.313816 0.176903,0.427096 0.113279,0.113398 0.266905,0.177021 0.427215,0.177021 0.03509,0 0.07043,0 0.105401,0 0.16031,0 0.313936,-0.06362 0.427215,-0.177021 0.11328,-0.11328 0.176902,-0.266905 0.176902,-0.427096 v 0 z"
     style="clip-rule:evenodd;fill:none;fill-rule:evenodd;stroke:#ffffff;stroke-width:0.417783px;stroke-linecap:round;stroke-linejoin:round;stroke-miterlimit:1.5"
     id="path2528-1-9" /><path
     d="m 30.435028,19.460119 c 0,-0.16031 -0.06374,-0.313936 -0.176902,-0.427215 -0.113399,-0.113399 -0.267025,-0.176903 -0.427216,-0.176903 -0.03509,0 -0.07043,0 -0.10552,0 -0.160191,0 -0.313817,0.06362 -0.427096,0.176903 -0.113399,0.113279 -0.177022,0.266905 -0.177022,0.427215 0,0.160191 0.06362,0.313816 0.177022,0.427096 0.113279,0.113398 0.266905,0.177021 0.427096,0.177021 0.03509,0 0.07043,0 0.10552,0 0.160191,0 0.313936,-0.06362 0.427216,-0.177021 0.113279,-0.11328 0.176902,-0.266905 0.176902,-0.427096 z"
     style="clip-rule:evenodd;fill:none;fill-rule:evenodd;stroke:#ffffff;stroke-width:0.417783px;stroke-linecap:round;stroke-linejoin:round;stroke-miterlimit:1.5"
     id="path2530-1-4" /><circle
     cx="22.241665"
     cy="24.508486"
     r="2.0625455"
     style="clip-rule:evenodd;fill:none;fill-rule:evenodd;stroke:#ffffff;stroke-width:0.417783px;stroke-linecap:round;stroke-linejoin:round;stroke-miterlimit:1.5"
     id="circle2532-5-5" /><circle
     cx="21.837128"
     cy="23.673275"
     r="0.36717346"
     style="clip-rule:evenodd;fill:none;fill-rule:evenodd;stroke:#ffffff;stroke-width:0.417783px;stroke-linecap:round;stroke-linejoin:round;stroke-miterlimit:1.5"
     id="circle2534-2-6" /><path
     d="m 20.307319,25.224927 0.776722,-0.71644 0.752968,0.79773 1.040405,-1.265769 1.27508,1.245"
     style="clip-rule:evenodd;fill:none;fill-rule:evenodd;stroke:#ffffff;stroke-width:0.417783px;stroke-linecap:round;stroke-linejoin:round;stroke-miterlimit:1.5"
     id="path2536-2-8" /><path
     d="m 10.999662,27.058764 -0.940732,1.04005 0.940613,1.097582"
     style="clip-rule:evenodd;fill:none;fill-rule:evenodd;stroke:#ffffff;stroke-width:0.417783px;stroke-linecap:round;stroke-linejoin:round;stroke-miterlimit:1.5"
     id="path2538-2-4" /><path
     d="m 33.408942,29.196396 0.940613,-1.040167 -0.940613,-1.097465"
     style="clip-rule:evenodd;fill:none;fill-rule:evenodd;stroke:#ffffff;stroke-width:0.417783px;stroke-linecap:round;stroke-linejoin:round;stroke-miterlimit:1.5"
     id="path2540-2-2" /></svg>
